<svg width="300" height="45" viewBox="0 0 300 45" fill="none" xmlns="http://www.w3.org/2000/svg">
<rect x="0.5" y="0.5" width="299" height="44" rx="3.5" stroke="white"/>
<path d="M56.346 18.2C57.578 18.2 58.544 18.494 59.244 19.082C59.944 19.6607 60.294 20.468 60.294 21.504C60.294 22.5307 59.944 23.338 59.244 23.926C58.544 24.5047 57.578 24.794 56.346 24.794H53.546V28H52.832V18.2H56.346ZM56.346 24.15C57.3914 24.15 58.1894 23.9213 58.74 23.464C59.2907 23.0067 59.566 22.3533 59.566 21.504C59.566 20.6547 59.2907 20.0013 58.74 19.544C58.1894 19.0773 57.3914 18.844 56.346 18.844H53.546V24.15H56.346ZM68.2729 25.242H62.5889L61.3429 28H60.5729L65.0809 18.2H65.7949L70.3029 28H69.5329L68.2729 25.242ZM68.0069 24.64L65.4309 18.984L62.8689 24.64H68.0069ZM74.658 28.07C73.9394 28.07 73.2534 27.9487 72.6 27.706C71.956 27.454 71.452 27.132 71.088 26.74L71.41 26.208C71.7554 26.572 72.2174 26.8707 72.796 27.104C73.384 27.328 74 27.44 74.644 27.44C75.5774 27.44 76.282 27.2627 76.758 26.908C77.234 26.5533 77.472 26.0913 77.472 25.522C77.472 25.0833 77.346 24.7333 77.094 24.472C76.842 24.2107 76.5294 24.01 76.156 23.87C75.7827 23.73 75.2787 23.5853 74.644 23.436C73.9254 23.2587 73.3467 23.086 72.908 22.918C72.4787 22.75 72.11 22.4933 71.802 22.148C71.5034 21.7933 71.354 21.322 71.354 20.734C71.354 20.258 71.48 19.824 71.732 19.432C71.984 19.0307 72.3667 18.7133 72.88 18.48C73.4027 18.2467 74.0514 18.13 74.826 18.13C75.3674 18.13 75.8994 18.2093 76.422 18.368C76.9447 18.5267 77.3974 18.7413 77.78 19.012L77.514 19.586C77.122 19.3153 76.688 19.11 76.212 18.97C75.7454 18.83 75.2834 18.76 74.826 18.76C73.9207 18.76 73.2347 18.942 72.768 19.306C72.3014 19.67 72.068 20.1413 72.068 20.72C72.068 21.1587 72.194 21.5087 72.446 21.77C72.698 22.0313 73.0107 22.232 73.384 22.372C73.7574 22.512 74.266 22.6613 74.91 22.82C75.6287 22.9973 76.2027 23.17 76.632 23.338C77.0614 23.506 77.4254 23.7627 77.724 24.108C78.032 24.444 78.186 24.9013 78.186 25.48C78.186 25.956 78.0554 26.39 77.794 26.782C77.542 27.174 77.15 27.4867 76.618 27.72C76.086 27.9533 75.4327 28.07 74.658 28.07ZM83.1893 28.07C82.4706 28.07 81.7846 27.9487 81.1313 27.706C80.4873 27.454 79.9833 27.132 79.6193 26.74L79.9413 26.208C80.2866 26.572 80.7486 26.8707 81.3273 27.104C81.9153 27.328 82.5313 27.44 83.1753 27.44C84.1086 27.44 84.8133 27.2627 85.2893 26.908C85.7653 26.5533 86.0033 26.0913 86.0033 25.522C86.0033 25.0833 85.8773 24.7333 85.6253 24.472C85.3733 24.2107 85.0606 24.01 84.6873 23.87C84.3139 23.73 83.8099 23.5853 83.1753 23.436C82.4566 23.2587 81.8779 23.086 81.4393 22.918C81.0099 22.75 80.6413 22.4933 80.3333 22.148C80.0346 21.7933 79.8853 21.322 79.8853 20.734C79.8853 20.258 80.0113 19.824 80.2633 19.432C80.5153 19.0307 80.8979 18.7133 81.4113 18.48C81.9339 18.2467 82.5826 18.13 83.3573 18.13C83.8986 18.13 84.4306 18.2093 84.9533 18.368C85.4759 18.5267 85.9286 18.7413 86.3113 19.012L86.0453 19.586C85.6533 19.3153 85.2193 19.11 84.7433 18.97C84.2766 18.83 83.8146 18.76 83.3573 18.76C82.4519 18.76 81.7659 18.942 81.2993 19.306C80.8326 19.67 80.5993 20.1413 80.5993 20.72C80.5993 21.1587 80.7253 21.5087 80.9773 21.77C81.2293 22.0313 81.5419 22.232 81.9153 22.372C82.2886 22.512 82.7973 22.6613 83.4413 22.82C84.1599 22.9973 84.7339 23.17 85.1633 23.338C85.5926 23.506 85.9566 23.7627 86.2553 24.108C86.5633 24.444 86.7173 24.9013 86.7173 25.48C86.7173 25.956 86.5866 26.39 86.3253 26.782C86.0733 27.174 85.6813 27.4867 85.1493 27.72C84.6173 27.9533 83.9639 28.07 83.1893 28.07ZM102.249 18.2L98.9305 28H98.1745L95.1365 19.208L92.0845 28H91.3285L87.9965 18.2H88.7525L91.7345 27.02L94.8005 18.2H95.4865L98.5385 27.034L101.549 18.2H102.249ZM108.369 28.07C107.408 28.07 106.54 27.8553 105.765 27.426C104.99 26.9873 104.379 26.39 103.931 25.634C103.492 24.878 103.273 24.0333 103.273 23.1C103.273 22.1667 103.492 21.322 103.931 20.566C104.379 19.81 104.99 19.2173 105.765 18.788C106.54 18.3493 107.408 18.13 108.369 18.13C109.33 18.13 110.198 18.3447 110.973 18.774C111.748 19.2033 112.354 19.796 112.793 20.552C113.241 21.308 113.465 22.1573 113.465 23.1C113.465 24.0427 113.241 24.892 112.793 25.648C112.354 26.404 111.748 26.9967 110.973 27.426C110.198 27.8553 109.33 28.07 108.369 28.07ZM108.369 27.412C109.19 27.412 109.932 27.2253 110.595 26.852C111.258 26.4787 111.78 25.9653 112.163 25.312C112.546 24.6493 112.737 23.912 112.737 23.1C112.737 22.288 112.546 21.5553 112.163 20.902C111.78 20.2393 111.258 19.7213 110.595 19.348C109.932 18.9747 109.19 18.788 108.369 18.788C107.548 18.788 106.801 18.9747 106.129 19.348C105.466 19.7213 104.944 20.2393 104.561 20.902C104.178 21.5553 103.987 22.288 103.987 23.1C103.987 23.912 104.178 24.6493 104.561 25.312C104.944 25.9653 105.466 26.4787 106.129 26.852C106.801 27.2253 107.548 27.412 108.369 27.412ZM122.745 28L120.407 24.724C120.062 24.7707 119.745 24.794 119.455 24.794H116.655V28H115.941V18.2H119.455C120.687 18.2 121.653 18.494 122.353 19.082C123.053 19.6607 123.403 20.468 123.403 21.504C123.403 22.2787 123.203 22.932 122.801 23.464C122.409 23.9867 121.845 24.3553 121.107 24.57L123.557 28H122.745ZM119.455 24.164C120.501 24.164 121.299 23.9353 121.849 23.478C122.4 23.0113 122.675 22.3533 122.675 21.504C122.675 20.6547 122.4 20.0013 121.849 19.544C121.299 19.0773 120.501 18.844 119.455 18.844H116.655V24.164H119.455ZM126.018 18.2H129.896C130.913 18.2 131.814 18.41 132.598 18.83C133.391 19.25 134.007 19.8333 134.446 20.58C134.884 21.3173 135.104 22.1573 135.104 23.1C135.104 24.0427 134.884 24.8873 134.446 25.634C134.007 26.3713 133.391 26.95 132.598 27.37C131.814 27.79 130.913 28 129.896 28H126.018V18.2ZM129.84 27.356C130.745 27.356 131.543 27.1787 132.234 26.824C132.924 26.46 133.456 25.956 133.83 25.312C134.203 24.668 134.39 23.9307 134.39 23.1C134.39 22.2693 134.203 21.532 133.83 20.888C133.456 20.244 132.924 19.7447 132.234 19.39C131.543 19.026 130.745 18.844 129.84 18.844H126.732V27.356H129.84Z" fill="white"/>
<path d="M27.8333 22.1667H16.1667C15.2462 22.1667 14.5 22.9129 14.5 23.8333V29.6667C14.5 30.5871 15.2462 31.3333 16.1667 31.3333H27.8333C28.7538 31.3333 29.5 30.5871 29.5 29.6667V23.8333C29.5 22.9129 28.7538 22.1667 27.8333 22.1667Z" stroke="white" stroke-linecap="round" stroke-linejoin="round"/>
<path d="M17.8334 22.1667V18.8333C17.8334 17.7283 18.2724 16.6685 19.0538 15.8871C19.8352 15.1057 20.895 14.6667 22 14.6667C23.1051 14.6667 24.1649 15.1057 24.9463 15.8871C25.7277 16.6685 26.1667 17.7283 26.1667 18.8333V22.1667" stroke="white" stroke-linecap="round" stroke-linejoin="round"/>
</svg>
